<?xml version="1.0" encoding="UTF-8" standalone="no"?>
<!DOCTYPE svg PUBLIC "-//W3C//DTD SVG 1.1//EN" "http://www.w3.org/Graphics/SVG/1.1/DTD/svg11.dtd">
<svg version="1.1" xmlns="http://www.w3.org/2000/svg" xmlns:xlink="http://www.w3.org/1999/xlink" preserveAspectRatio="xMidYMid meet" viewBox="0 0 640 640" width="640" height="640"><defs><path d="M308.16 350.36C308.14 350.33 308.11 350.31 308.09 350.29C307.43 349.62 304.11 346.3 298.13 340.33C304.11 334.35 307.43 331.03 308.09 330.36C309.01 329.45 310.5 329.45 311.41 330.36C312.33 331.28 312.33 332.77 311.41 333.68C310.97 334.13 308.76 336.34 304.77 340.33C308.76 344.31 310.97 346.52 311.41 346.97C312.33 347.85 312.36 349.3 311.48 350.22C311.46 350.24 311.44 350.27 311.41 350.29C310.53 351.2 309.08 351.24 308.16 350.36Z" id="eUTV1UOm8"></path></defs><g><g><g><use xlink:href="#eUTV1UOm8" opacity="1" fill="#c4aac5" fill-opacity="1"></use><g><use xlink:href="#eUTV1UOm8" opacity="1" fill-opacity="0" stroke="#000000" stroke-width="1" stroke-opacity="0"></use></g></g></g></g></svg>